<mxfile host="app.diagrams.net" modified="2022-01-06T05:01:28.515Z" agent="5.0 (Macintosh; Intel Mac OS X 10_15_7) AppleWebKit/537.36 (KHTML, like Gecko) Chrome/96.0.4664.110 Safari/537.36" etag="VU-GJOiSVusvPgtboVu3" version="16.2.2" type="github">
  <diagram id="r6IDNv6xsE6FicFiDBsw" name="Page-1">
    <mxGraphModel dx="998" dy="631" grid="1" gridSize="10" guides="1" tooltips="1" connect="1" arrows="1" fold="1" page="1" pageScale="1" pageWidth="2336" pageHeight="1654" math="0" shadow="0">
      <root>
        <mxCell id="0" />
        <mxCell id="1" parent="0" />
        <mxCell id="zuH0ebxx6mYs9fk7_g1I-3" style="edgeStyle=orthogonalEdgeStyle;rounded=0;orthogonalLoop=1;jettySize=auto;html=1;exitX=0.5;exitY=0;exitDx=0;exitDy=0;entryX=0.5;entryY=1;entryDx=0;entryDy=0;" edge="1" parent="1" source="zuH0ebxx6mYs9fk7_g1I-1" target="zuH0ebxx6mYs9fk7_g1I-2">
          <mxGeometry relative="1" as="geometry" />
        </mxCell>
        <mxCell id="zuH0ebxx6mYs9fk7_g1I-9" value="" style="edgeStyle=orthogonalEdgeStyle;rounded=0;orthogonalLoop=1;jettySize=auto;html=1;" edge="1" parent="1" source="zuH0ebxx6mYs9fk7_g1I-1" target="zuH0ebxx6mYs9fk7_g1I-7">
          <mxGeometry relative="1" as="geometry" />
        </mxCell>
        <mxCell id="zuH0ebxx6mYs9fk7_g1I-10" style="edgeStyle=orthogonalEdgeStyle;rounded=0;orthogonalLoop=1;jettySize=auto;html=1;exitX=0.5;exitY=1;exitDx=0;exitDy=0;" edge="1" parent="1" source="zuH0ebxx6mYs9fk7_g1I-1" target="zuH0ebxx6mYs9fk7_g1I-8">
          <mxGeometry relative="1" as="geometry" />
        </mxCell>
        <mxCell id="zuH0ebxx6mYs9fk7_g1I-14" style="edgeStyle=orthogonalEdgeStyle;rounded=0;orthogonalLoop=1;jettySize=auto;html=1;entryX=0.004;entryY=0.591;entryDx=0;entryDy=0;entryPerimeter=0;exitX=1.002;exitY=0.657;exitDx=0;exitDy=0;exitPerimeter=0;" edge="1" parent="1" source="zuH0ebxx6mYs9fk7_g1I-1" target="zuH0ebxx6mYs9fk7_g1I-6">
          <mxGeometry relative="1" as="geometry" />
        </mxCell>
        <mxCell id="zuH0ebxx6mYs9fk7_g1I-15" style="edgeStyle=orthogonalEdgeStyle;rounded=0;orthogonalLoop=1;jettySize=auto;html=1;entryX=1;entryY=0.5;entryDx=0;entryDy=0;" edge="1" parent="1" source="zuH0ebxx6mYs9fk7_g1I-1" target="zuH0ebxx6mYs9fk7_g1I-5">
          <mxGeometry relative="1" as="geometry" />
        </mxCell>
        <mxCell id="zuH0ebxx6mYs9fk7_g1I-18" style="edgeStyle=orthogonalEdgeStyle;rounded=0;orthogonalLoop=1;jettySize=auto;html=1;startArrow=none;startFill=0;" edge="1" parent="1" source="zuH0ebxx6mYs9fk7_g1I-1" target="zuH0ebxx6mYs9fk7_g1I-17">
          <mxGeometry relative="1" as="geometry">
            <Array as="points">
              <mxPoint x="900" y="405" />
              <mxPoint x="900" y="405" />
            </Array>
          </mxGeometry>
        </mxCell>
        <mxCell id="zuH0ebxx6mYs9fk7_g1I-20" style="edgeStyle=orthogonalEdgeStyle;rounded=0;orthogonalLoop=1;jettySize=auto;html=1;entryX=0.5;entryY=1;entryDx=0;entryDy=0;startArrow=none;startFill=0;" edge="1" parent="1" source="zuH0ebxx6mYs9fk7_g1I-1" target="zuH0ebxx6mYs9fk7_g1I-19">
          <mxGeometry relative="1" as="geometry">
            <Array as="points">
              <mxPoint x="920" y="390" />
            </Array>
          </mxGeometry>
        </mxCell>
        <mxCell id="zuH0ebxx6mYs9fk7_g1I-1" value="&lt;b&gt;Partner Management Service&lt;/b&gt;" style="rounded=0;whiteSpace=wrap;html=1;labelBackgroundColor=default;" vertex="1" parent="1">
          <mxGeometry x="640" y="370" width="180" height="70" as="geometry" />
        </mxCell>
        <mxCell id="zuH0ebxx6mYs9fk7_g1I-2" value="Keymanager" style="rounded=0;whiteSpace=wrap;html=1;" vertex="1" parent="1">
          <mxGeometry x="670" y="225" width="120" height="60" as="geometry" />
        </mxCell>
        <mxCell id="zuH0ebxx6mYs9fk7_g1I-4" value="Upload partner certs" style="text;html=1;strokeColor=none;fillColor=none;align=center;verticalAlign=middle;whiteSpace=wrap;rounded=0;" vertex="1" parent="1">
          <mxGeometry x="730" y="315" width="60" height="30" as="geometry" />
        </mxCell>
        <mxCell id="zuH0ebxx6mYs9fk7_g1I-5" value="Reg proc" style="rounded=0;whiteSpace=wrap;html=1;" vertex="1" parent="1">
          <mxGeometry x="420" y="375" width="120" height="60" as="geometry" />
        </mxCell>
        <mxCell id="zuH0ebxx6mYs9fk7_g1I-6" value="Datashare" style="rounded=0;whiteSpace=wrap;html=1;" vertex="1" parent="1">
          <mxGeometry x="970" y="480" width="120" height="60" as="geometry" />
        </mxCell>
        <mxCell id="zuH0ebxx6mYs9fk7_g1I-7" value="Notifier (Kernel)" style="rounded=0;whiteSpace=wrap;html=1;" vertex="1" parent="1">
          <mxGeometry x="590" y="530" width="120" height="60" as="geometry" />
        </mxCell>
        <mxCell id="zuH0ebxx6mYs9fk7_g1I-8" value="Auditmanager" style="rounded=0;whiteSpace=wrap;html=1;" vertex="1" parent="1">
          <mxGeometry x="770" y="530" width="120" height="60" as="geometry" />
        </mxCell>
        <mxCell id="zuH0ebxx6mYs9fk7_g1I-11" value="Audit logs" style="text;html=1;strokeColor=none;fillColor=none;align=center;verticalAlign=middle;whiteSpace=wrap;rounded=0;" vertex="1" parent="1">
          <mxGeometry x="770" y="450" width="60" height="30" as="geometry" />
        </mxCell>
        <mxCell id="zuH0ebxx6mYs9fk7_g1I-12" value="Partner notifications" style="text;html=1;strokeColor=none;fillColor=none;align=center;verticalAlign=middle;whiteSpace=wrap;rounded=0;" vertex="1" parent="1">
          <mxGeometry x="650" y="450" width="60" height="30" as="geometry" />
        </mxCell>
        <mxCell id="zuH0ebxx6mYs9fk7_g1I-13" value="Partner certs to IDA" style="text;html=1;strokeColor=none;fillColor=none;align=center;verticalAlign=middle;whiteSpace=wrap;rounded=0;" vertex="1" parent="1">
          <mxGeometry x="890" y="440" width="60" height="30" as="geometry" />
        </mxCell>
        <mxCell id="zuH0ebxx6mYs9fk7_g1I-16" value="Fetch ABIS policy" style="text;html=1;strokeColor=none;fillColor=none;align=center;verticalAlign=middle;whiteSpace=wrap;rounded=0;" vertex="1" parent="1">
          <mxGeometry x="560" y="360" width="60" height="30" as="geometry" />
        </mxCell>
        <mxCell id="zuH0ebxx6mYs9fk7_g1I-17" value="mosip_pms DB" style="shape=cylinder3;whiteSpace=wrap;html=1;boundedLbl=1;backgroundOutline=1;size=15;" vertex="1" parent="1">
          <mxGeometry x="990" y="365" width="60" height="80" as="geometry" />
        </mxCell>
        <mxCell id="zuH0ebxx6mYs9fk7_g1I-19" value="ID Repo" style="rounded=0;whiteSpace=wrap;html=1;" vertex="1" parent="1">
          <mxGeometry x="860" y="240" width="120" height="60" as="geometry" />
        </mxCell>
        <mxCell id="zuH0ebxx6mYs9fk7_g1I-21" value="Credential partners and policies" style="text;html=1;strokeColor=none;fillColor=none;align=center;verticalAlign=middle;whiteSpace=wrap;rounded=0;" vertex="1" parent="1">
          <mxGeometry x="920" y="330" width="60" height="30" as="geometry" />
        </mxCell>
        <mxCell id="zuH0ebxx6mYs9fk7_g1I-22" value="1" style="ellipse;whiteSpace=wrap;html=1;aspect=fixed;" vertex="1" parent="1">
          <mxGeometry x="692.5" y="317.5" width="25" height="25" as="geometry" />
        </mxCell>
        <mxCell id="zuH0ebxx6mYs9fk7_g1I-23" value="2" style="ellipse;whiteSpace=wrap;html=1;aspect=fixed;" vertex="1" parent="1">
          <mxGeometry x="577.5" y="410" width="25" height="25" as="geometry" />
        </mxCell>
        <mxCell id="zuH0ebxx6mYs9fk7_g1I-24" value="3" style="ellipse;whiteSpace=wrap;html=1;aspect=fixed;" vertex="1" parent="1">
          <mxGeometry x="667.5" y="490" width="25" height="25" as="geometry" />
        </mxCell>
        <mxCell id="zuH0ebxx6mYs9fk7_g1I-25" value="4" style="ellipse;whiteSpace=wrap;html=1;aspect=fixed;" vertex="1" parent="1">
          <mxGeometry x="787.5" y="490" width="25" height="25" as="geometry" />
        </mxCell>
        <mxCell id="zuH0ebxx6mYs9fk7_g1I-26" value="7" style="ellipse;whiteSpace=wrap;html=1;aspect=fixed;" vertex="1" parent="1">
          <mxGeometry x="920" y="480" width="25" height="25" as="geometry" />
        </mxCell>
        <mxCell id="zuH0ebxx6mYs9fk7_g1I-27" value="6" style="ellipse;whiteSpace=wrap;html=1;aspect=fixed;" vertex="1" parent="1">
          <mxGeometry x="955" y="410" width="25" height="25" as="geometry" />
        </mxCell>
        <mxCell id="zuH0ebxx6mYs9fk7_g1I-28" value="5" style="ellipse;whiteSpace=wrap;html=1;aspect=fixed;" vertex="1" parent="1">
          <mxGeometry x="890" y="332.5" width="25" height="25" as="geometry" />
        </mxCell>
      </root>
    </mxGraphModel>
  </diagram>
</mxfile>
